<svg xmlns="http://www.w3.org/2000/svg" width="24" height="24" viewBox="0 0 24 24" fill="#FFFFFF" stroke="#FFFFFF" stroke-width="2" stroke-linecap="round" stroke-linejoin="round">
  <path d="M18 11V6a2 2 0 0 0-2-2v0a2 2 0 0 0-2 2v0M18 11V6a2 2 0 0 0-2-2v0a2 2 0 0 0-2 2v5"></path>
  <path d="M14 11V4a2 2 0 0 0-2-2v0a2 2 0 0 0-2 2v7"></path>
  <path d="M10 11V8a2 2 0 0 0-2-2v0a2 2 0 0 0-2 2v3"></path>
  <path d="M6 11v0a2 2 0 0 1 2 2v0c0 1.1.9 2 2 2v0"></path>
  <path d="M18 11v0a2 2 0 0 0-2 2v0c0 1.1-.9 2-2 2v0"></path>
  <path d="M14 15v0a2 2 0 0 0-2 2v3"></path>
</svg> 