<?xml version="1.0" standalone="no"?>
<!DOCTYPE svg PUBLIC "-//W3C//DTD SVG 20010904//EN"
 "http://www.w3.org/TR/2001/REC-SVG-20010904/DTD/svg10.dtd">
<svg version="1.0" xmlns="http://www.w3.org/2000/svg"
 width="225.000000pt" height="225.000000pt" viewBox="0 0 225.000000 225.000000"
 preserveAspectRatio="xMidYMid meet">

<g transform="translate(0.000000,225.000000) scale(0.100000,-0.100000)"
fill="#000000" stroke="none">
<path d="M0 1125 l0 -1125 1125 0 1125 0 0 1125 0 1125 -1125 0 -1125 0 0
-1125z m1605 995 c-3 -5 -12 -10 -18 -10 -7 0 -6 4 3 10 19 12 23 12 15 0z
m-85 -29 c0 -10 -30 -24 -37 -17 -3 3 -2 9 2 15 8 13 35 15 35 2z m500 -31 c0
-5 -11 -10 -25 -10 -14 0 -25 5 -25 10 0 6 11 10 25 10 14 0 25 -4 25 -10z
m-626 -35 c-10 -8 -30 -15 -43 -15 -24 0 -24 0 -5 15 10 8 30 15 43 15 24 0
24 0 5 -15z m669 -1 c21 -8 22 -30 1 -38 -10 -4 -18 0 -21 13 -4 17 -7 17 -21
5 -10 -8 -50 -39 -89 -69 l-73 -54 -55 11 c-54 11 -55 11 -38 31 31 35 92 67
125 67 22 0 29 3 19 9 -18 11 -5 17 48 20 33 2 42 0 37 -11 -4 -7 1 -3 10 10
9 12 22 20 28 17 6 -3 19 -8 29 -11z m-786 -40 c-3 -3 -12 -4 -19 -1 -8 3 -5
6 6 6 11 1 17 -2 13 -5z m879 -16 c10 -16 -2 -19 -30 -8 -15 5 -25 14 -22 19
7 11 44 3 52 -11z m-36 -38 c0 -5 -4 -10 -10 -10 -5 0 -10 5 -10 10 0 6 5 10
10 10 6 0 10 -4 10 -10z m-1162 -32 c-5 -15 -173 -87 -203 -88 -38 0 8 30 101
65 100 38 107 40 102 23z m127 3 c-26 -24 -117 -62 -142 -59 l-28 3 34 19 c19
10 55 24 80 31 60 16 67 17 56 6z m768 -41 c5 -4 -10 -20 -33 -36 -23 -16 -64
-47 -92 -69 -90 -71 -110 -84 -126 -78 -13 5 -12 8 3 19 10 8 24 30 31 50 8
25 9 33 1 25 -14 -14 -84 -15 -92 -1 -3 6 4 11 17 11 13 1 34 3 48 6 14 2 33
4 42 4 10 0 20 10 24 23 8 34 79 67 129 60 22 -4 44 -10 48 -14z m-193 -6 c0
-2 -36 -22 -79 -44 -62 -30 -87 -38 -110 -34 -43 9 -28 24 17 18 25 -4 33 -3
24 4 -21 14 82 69 119 64 16 -2 29 -6 29 -8z m518 -44 c0 -21 -4 -30 -15 -30
-12 0 -13 3 -4 13 6 8 8 17 5 20 -5 5 3 27 10 27 2 0 3 -13 4 -30z m-278 -4
c0 -2 -7 -7 -16 -10 -8 -3 -12 -2 -9 4 6 10 25 14 25 6z m-40 -20 c0 -2 -8
-10 -17 -17 -16 -13 -17 -12 -4 4 13 16 21 21 21 13z m-1115 -25 c-6 -4 -50
-25 -100 -45 -49 -20 -98 -41 -107 -47 -10 -5 -25 -9 -34 -9 -13 0 -14 3 -4
15 7 8 19 15 26 15 8 0 22 5 32 10 9 6 51 24 92 40 75 29 113 38 95 21z m848
-31 c-3 -11 -10 -23 -16 -27 -5 -3 -8 -2 -5 3 3 5 8 17 11 27 9 24 16 22 10
-3z m409 -31 l49 -32 22 21 c82 77 127 25 127 -145 0 -74 -2 -83 -19 -83 -16
0 -19 11 -23 96 -6 105 -15 125 -43 94 -25 -28 -80 -26 -134 5 l-43 25 -33
-20 c-39 -24 -45 -25 -45 -4 0 8 -4 12 -10 9 -5 -3 -10 1 -10 10 0 9 4 14 8
11 5 -3 24 6 43 19 44 31 53 31 111 -6z m-582 6 c0 -2 -13 -11 -30 -20 -38
-19 -40 -11 -2 9 31 17 32 18 32 11z m387 -23 c-11 -12 -14 -29 -10 -59 5 -35
2 -43 -16 -52 -19 -10 -21 -9 -21 12 0 13 -6 32 -14 43 -13 17 -11 21 27 46
50 32 55 34 34 10z m-224 -12 c10 0 17 -5 15 -12 -6 -18 -220 -148 -232 -141
-5 3 -6 2 -3 -4 8 -13 -41 -36 -55 -27 -6 4 -8 3 -5 -2 3 -6 -4 -16 -16 -24
-19 -11 -21 -11 -12 1 6 8 -1 3 -14 -11 -13 -14 -20 -19 -17 -13 5 9 2 11 -8
7 -9 -3 -13 -10 -10 -15 3 -5 0 -10 -5 -10 -6 -1 -15 -2 -21 -3 -5 0 -18 -9
-30 -18 -11 -10 -20 -15 -20 -12 0 3 -18 -5 -40 -17 -21 -12 -36 -27 -33 -32
3 -6 1 -7 -5 -3 -6 3 -18 -2 -28 -11 -9 -9 -23 -18 -31 -19 -8 -2 -23 -10 -32
-18 -10 -9 -21 -16 -25 -16 -4 0 -31 -15 -59 -34 -29 -18 -102 -64 -164 -102
-61 -37 -110 -71 -107 -75 2 -4 0 -10 -6 -14 -5 -3 -10 -1 -10 5 0 6 -5 8 -10
5 -6 -4 -8 -11 -4 -16 3 -5 2 -9 -3 -8 -16 4 -63 -24 -63 -38 0 -8 -4 -12 -9
-9 -4 3 -16 -1 -27 -8 -10 -8 -24 -12 -31 -9 -9 4 -11 0 -6 -13 4 -10 2 -15
-4 -11 -5 3 -26 -5 -46 -19 -32 -21 -38 -23 -43 -9 -3 8 -10 15 -15 15 -5 0
-27 11 -48 24 -21 14 -42 22 -45 19 -3 -4 -6 -2 -6 4 0 5 11 16 25 23 17 9 21
16 14 21 -8 4 -4 11 12 20 22 11 23 11 10 -4 -8 -10 -9 -17 -3 -17 6 0 14 5
17 10 3 6 12 10 18 10 7 0 -8 -13 -32 -29 l-43 -29 35 -17 36 -17 60 37 c33
20 62 44 65 52 4 9 1 13 -6 10 -7 -2 -12 -9 -11 -15 2 -6 -4 -9 -13 -5 -12 4
-11 8 8 21 29 21 62 24 47 5 -6 -7 9 -1 35 13 50 28 64 44 17 20 -25 -13 -31
-13 -41 -1 -9 11 -7 16 10 25 11 6 26 8 33 4 6 -4 9 -3 4 1 -9 10 120 94 145
95 9 0 33 10 53 22 29 17 39 18 45 8 6 -10 14 -8 36 9 15 12 32 31 38 43 6 12
18 23 26 25 10 3 8 -1 -4 -11 -11 -9 -17 -18 -14 -21 2 -3 13 4 23 15 10 11
26 20 37 20 20 0 24 15 6 26 -7 4 -8 3 -4 -4 5 -8 -5 -12 -31 -12 -27 0 -34 3
-23 9 8 6 18 7 22 4 5 -2 15 1 23 7 8 6 19 9 24 6 5 -4 12 -2 16 4 6 9 1 11
-37 14 -7 1 -12 -5 -10 -12 2 -14 -14 -16 -23 -2 -3 6 -1 10 6 10 7 0 10 3 7
6 -10 10 -49 -16 -42 -28 4 -6 1 -9 -7 -6 -8 3 -13 11 -11 17 3 16 -8 14 -43
-7 -36 -22 -75 -37 -60 -24 11 10 407 236 529 303 44 23 76 37 71 29 -6 -10
-4 -12 11 -5 10 4 27 7 37 7 11 -1 15 4 11 11 -4 7 -3 8 1 4 12 -11 15 -38 4
-31 -5 3 -29 -5 -52 -19 -23 -13 -49 -22 -57 -19 -13 5 -13 3 0 -13 11 -14 12
-19 3 -22 -7 -3 -13 -11 -13 -19 0 -12 4 -13 23 -3 12 7 25 17 29 23 4 6 13
11 20 11 7 1 12 7 10 14 -2 9 3 11 13 7 8 -3 24 2 34 12 10 9 24 18 32 20 8 2
20 9 28 15 25 21 66 35 76 26 5 -5 17 -9 28 -9z m-13 -94 c0 -2 -7 -7 -16 -10
-8 -3 -12 -2 -9 4 6 10 25 14 25 6z m-1360 -26 c0 -12 -42 -31 -50 -23 -6 5
30 33 42 33 4 0 8 -5 8 -10z m1284 -25 c-57 -51 -196 -148 -389 -270 -369
-234 -515 -335 -524 -358 -5 -13 -24 -33 -43 -44 -58 -34 -68 -35 -80 -8 -9
21 -8 28 7 45 10 11 14 20 9 20 -5 0 14 12 41 27 28 14 95 56 150 93 134 90
619 401 719 462 44 27 85 47 91 44 6 -2 19 2 30 10 34 25 29 15 -11 -21z m6
-45 c0 -5 -2 -10 -4 -10 -3 0 -8 5 -11 10 -3 6 -1 10 4 10 6 0 11 -4 11 -10z
m293 -67 c3 -26 18 -61 40 -90 48 -66 88 -149 81 -167 -11 -29 -33 -17 -53 28
-10 24 -38 70 -61 102 -50 67 -63 113 -47 165 10 32 13 35 23 21 6 -10 14 -36
17 -59z m-193 64 c0 -2 -23 -27 -52 -57 -28 -29 -48 -46 -45 -36 4 10 7 24 7
32 0 9 5 12 10 9 9 -6 14 8 11 28 0 4 8 7 19 7 11 0 20 5 20 10 0 6 7 10 15
10 8 0 15 -1 15 -3z m77 -74 c-3 -10 -5 -4 -5 12 0 17 2 24 5 18 2 -7 2 -21 0
-30z m-107 3 c0 -3 -4 -8 -10 -11 -5 -3 -10 -1 -10 4 0 6 5 11 10 11 6 0 10
-2 10 -4z m80 0 c0 -3 -4 -8 -10 -11 -5 -3 -10 -1 -10 4 0 6 5 11 10 11 6 0
10 -2 10 -4z m-250 -26 c-14 -11 -29 -20 -35 -20 -5 0 4 9 20 20 38 25 48 25
15 0z m-6 -60 c-16 -15 -215 -152 -251 -174 -7 -4 -13 -3 -13 3 0 9 27 29 198
144 39 27 72 55 73 61 0 6 3 5 6 -3 3 -7 -3 -21 -13 -31z m-541 15 c18 -13 18
-14 -5 -26 -14 -7 -18 -14 -10 -17 23 -7 12 -17 -22 -17 -24 0 -31 3 -25 11 9
11 2 24 -13 24 -5 0 -7 -4 -3 -9 3 -5 0 -13 -6 -17 -8 -5 -9 -3 -4 6 6 10 4
12 -11 6 -25 -10 -12 2 33 30 45 27 43 27 66 9z m751 -1 c14 -36 6 -85 -19
-109 -13 -14 -29 -25 -34 -25 -19 0 -28 32 -21 71 11 62 59 102 74 63z m-279
-22 c-3 -3 -11 0 -18 7 -9 10 -8 11 6 5 10 -3 15 -9 12 -12z m-645 -27 c0 -2
-13 -11 -30 -20 -38 -19 -40 -11 -2 9 31 17 32 18 32 11z m46 -10 c-1 -8 -6
-18 -11 -22 -4 -4 -5 -2 -1 5 4 7 2 12 -6 12 -9 0 -9 3 2 10 19 12 19 13 16
-5z m704 1 c0 -3 -4 -8 -10 -11 -5 -3 -10 -1 -10 4 0 6 5 11 10 11 6 0 10 -2
10 -4z m37 -2 c-3 -3 -12 -4 -19 -1 -8 3 -5 6 6 6 11 1 17 -2 13 -5z m-722
-29 c-16 -14 -37 -25 -45 -25 -8 0 3 11 25 25 51 31 58 31 20 0z m652 3 c-3
-8 -6 -5 -6 6 -1 11 2 17 5 13 3 -3 4 -12 1 -19z m-787 -3 c0 -2 -12 -11 -27
-19 -21 -11 -23 -15 -10 -16 17 0 15 -20 -3 -20 -22 0 -17 31 8 44 31 17 32
18 32 11z m770 -2 c0 -5 -17 -19 -37 -33 -20 -14 -43 -31 -50 -39 -8 -7 -17
-10 -21 -6 -4 3 1 11 10 16 9 5 23 15 30 22 14 13 60 47 65 47 2 0 3 -3 3 -7z
m-863 -68 c-9 -7 -13 -16 -9 -20 4 -5 2 -5 -5 -1 -15 8 -125 -52 -118 -64 3
-5 -4 -14 -16 -20 -13 -7 -19 -8 -15 -2 3 6 2 13 -4 17 -16 10 -1 25 17 18 12
-5 14 -3 8 8 -4 8 -5 11 -1 7 4 -3 16 2 27 13 11 11 24 17 29 14 6 -4 10 -1
10 5 0 6 5 8 10 5 6 -3 10 -2 10 4 0 13 52 41 64 34 5 -4 2 -11 -7 -18z m517
-40 c-10 -8 -23 -15 -28 -15 -6 0 -1 7 10 15 10 8 23 15 28 15 6 0 1 -7 -10
-15z m256 -9 c0 -2 -8 -10 -17 -17 -16 -13 -17 -12 -4 4 13 16 21 21 21 13z
m-155 -36 c-3 -5 -20 -19 -38 -30 -32 -22 -32 -22 3 9 37 32 45 37 35 21z
m-810 -12 c-6 -14 -55 -40 -55 -30 0 5 40 34 57 41 1 1 0 -5 -2 -11z m1145
-52 c0 -12 -5 -7 -19 24 -11 24 -11 24 3 6 9 -11 16 -24 16 -30z m-44 25 c-3
-5 1 -12 10 -15 12 -5 15 -14 10 -37 -3 -18 -2 -28 4 -24 13 8 13 -6 0 -25 -5
-8 -10 -10 -10 -5 0 6 -5 2 -11 -7 -5 -10 -19 -18 -31 -18 -19 0 -20 4 -16 50
3 28 13 59 23 70 19 21 30 27 21 11z m-1166 -10 c0 -5 -10 -11 -22 -14 -22 -6
-22 -6 -4 8 23 17 26 18 26 6z m-66 -26 c-4 -8 -12 -15 -20 -15 -8 0 -13 -6
-11 -12 1 -7 -4 -13 -10 -13 -23 0 -16 19 13 37 16 9 30 17 31 17 1 1 0 -6 -3
-14z m636 -20 c0 -2 -10 -9 -22 -15 -22 -11 -22 -10 -4 4 21 17 26 19 26 11z
m-50 -29 c0 -2 -8 -10 -17 -17 -16 -13 -17 -12 -4 4 13 16 21 21 21 13z m-40
-30 c0 -2 -12 -11 -27 -20 l-28 -17 24 20 c23 21 31 25 31 17z m109 -32 c2
-10 0 -16 -4 -13 -3 4 -17 -3 -31 -16 -14 -13 -58 -46 -100 -75 -60 -41 -75
-48 -80 -36 -3 9 -3 24 2 34 4 9 6 21 5 25 -1 5 3 6 9 2 13 -8 62 30 52 40 -4
5 -2 5 4 2 6 -3 33 9 60 27 54 37 77 39 83 10z m-540 -65 c13 -38 -6 -38 -36
0 l-22 29 24 0 c17 0 27 -8 34 -29z m306 11 c-3 -5 -16 -15 -28 -21 -19 -9
-19 -8 3 10 28 23 34 26 25 11z m650 -10 c3 -5 1 -10 -4 -10 -6 0 -11 5 -11
10 0 6 2 10 4 10 3 0 8 -4 11 -10z m-1027 -38 c-2 -4 -9 -19 -17 -33 -15 -29
-3 -90 24 -124 14 -18 14 -17 0 13 -30 62 -20 121 22 122 33 0 140 -181 130
-220 -3 -11 -2 -20 3 -20 8 0 8 -56 -1 -65 -4 -3 -12 8 -18 24 -16 37 -50 47
-68 21 -8 -11 -22 -20 -31 -19 -12 0 -11 3 6 9 12 6 22 18 22 30 0 23 4 24 32
9 14 -8 23 -8 31 0 6 6 7 12 1 12 -5 1 -19 3 -32 4 -13 1 -35 13 -50 26 l-27
24 24 -27 c14 -16 19 -28 13 -28 -7 0 -26 19 -43 43 -57 78 -73 144 -45 182
12 17 12 21 -3 33 -14 11 -13 12 7 2 13 -6 22 -14 20 -18z m812 24 c0 -2 -8
-10 -17 -17 -16 -13 -17 -12 -4 4 13 16 21 21 21 13z m264 -37 c-12 -13 -20
-16 -22 -9 -3 7 2 16 9 21 25 16 32 9 13 -12z m-977 5 c-3 -3 2 -14 11 -24 18
-20 56 -80 50 -80 -2 0 -21 20 -41 45 -33 39 -41 65 -20 65 4 0 4 -3 0 -6z
m281 -30 c1 -14 -2 -32 -6 -40 -4 -8 -7 3 -7 26 0 44 9 55 13 14z m582 -14 c8
-16 7 -18 -4 -14 -8 3 -16 14 -19 25 -6 23 9 16 23 -11z m140 11 c0 -12 -20
-25 -27 -18 -7 7 6 27 18 27 5 0 9 -4 9 -9z m-750 -55 c0 -2 -8 -10 -17 -17
-16 -13 -17 -12 -4 4 13 16 21 21 21 13z m210 -12 c0 -10 -6 -14 -14 -11 -8 3
-17 -1 -20 -9 -3 -9 -11 -12 -17 -9 -6 5 -4 12 8 20 10 7 21 11 25 9 5 -3 8 0
8 5 0 6 2 11 5 11 3 0 5 -7 5 -16z m-70 -54 c-8 -5 -17 -7 -19 -4 -3 3 1 9 9
14 8 5 17 7 19 4 3 -3 -1 -9 -9 -14z m260 -84 c0 -12 -5 -7 -19 24 -11 24 -11
24 3 6 9 -11 16 -24 16 -30z m14 -79 c-3 -9 -10 -15 -14 -12 -4 3 -11 -2 -14
-11 -3 -8 -10 -13 -15 -10 -5 4 -11 0 -13 -6 -3 -8 -10 -4 -17 11 -8 14 -9 21
-2 17 6 -4 11 -2 11 3 0 6 9 20 21 32 18 18 23 19 35 7 8 -8 12 -22 8 -31z
m-140 -179 c-9 -13 -19 -9 -33 15 -13 21 -13 21 4 7 17 -14 17 -13 11 10 l-7
25 15 -25 c8 -14 12 -28 10 -32z"/>
<path d="M1491 1638 c-24 -17 -63 -41 -85 -53 -53 -27 -308 -183 -411 -250
-44 -29 -109 -69 -145 -89 -132 -74 -295 -177 -311 -195 -8 -10 -24 -21 -35
-25 -11 -3 -44 -22 -74 -41 -29 -19 -58 -36 -64 -39 -7 -2 -7 -8 2 -17 10 -11
14 -11 25 0 10 11 9 12 -2 6 -10 -5 -12 -4 -7 4 4 6 12 8 18 5 6 -4 17 1 25
12 7 10 37 32 67 49 82 47 177 108 198 128 10 9 21 17 24 16 3 -1 139 82 302
184 163 101 349 215 412 253 127 75 141 84 120 84 -8 -1 -35 -15 -59 -32z"/>
<path d="M1182 1568 c-78 -45 -139 -84 -135 -87 5 -3 9 -14 8 -25 0 -26 36
-38 60 -19 19 15 18 15 -13 9 -25 -4 -31 -3 -25 7 14 22 12 36 -5 30 -10 -5
-13 -3 -8 6 5 7 17 11 27 8 10 -3 17 0 16 5 -1 6 3 12 10 15 16 6 10 -27 -8
-38 -8 -5 -9 -9 -3 -9 16 0 35 25 26 35 -4 4 3 4 15 1 12 -4 24 -2 28 4 3 5
14 10 25 10 23 0 34 27 14 38 -12 7 -11 10 9 19 14 7 29 8 38 2 12 -7 12 -9
-1 -10 -8 -1 -21 -1 -29 0 -7 2 -10 -3 -6 -9 4 -6 13 -9 21 -6 12 4 12 2 4
-14 -8 -16 -8 -18 5 -14 8 3 12 10 9 15 -3 5 0 9 6 9 6 0 9 4 5 9 -3 5 -1 12
5 16 19 12 10 26 -12 20 -18 -4 -17 -2 5 10 16 9 31 14 34 11 9 -9 44 14 38
25 -4 5 -9 9 -13 9 -4 -1 -71 -37 -150 -82z m158 68 c0 -2 -7 -7 -16 -10 -8
-3 -12 -2 -9 4 6 10 25 14 25 6z m-136 -85 c9 -13 -40 -42 -59 -35 -13 6 -11
10 12 25 32 21 39 23 47 10z"/>
<path d="M1160 1530 c-9 -6 -10 -10 -3 -10 6 0 15 5 18 10 8 12 4 12 -15 0z"/>
<path d="M941 1430 c-84 -49 -112 -70 -76 -55 11 4 28 8 37 9 9 0 16 4 15 9
-1 5 4 12 12 15 8 2 11 0 7 -6 -12 -20 13 -23 46 -5 18 9 36 16 40 15 3 -1 9
5 12 13 3 9 0 12 -9 9 -14 -6 -15 12 -2 34 11 16 14 17 -82 -38z m66 5 c0 -9
-6 -14 -14 -11 -8 3 -11 2 -8 -4 3 -5 -3 -14 -14 -19 -29 -16 -38 -13 -15 4
19 15 19 15 -1 9 -13 -4 -9 2 10 15 36 25 42 26 42 6z"/>
<path d="M715 1198 c-46 -16 -75 -31 -75 -38 0 -12 29 -7 34 7 3 7 14 13 24
13 10 0 27 7 38 15 22 16 20 17 -21 3z"/>
<path d="M807 1326 c-11 -9 -14 -17 -8 -21 14 -8 53 13 46 26 -8 12 -16 11
-38 -5z m33 0 c0 -2 -7 -7 -16 -10 -8 -3 -12 -2 -9 4 6 10 25 14 25 6z"/>
<path d="M357 1089 c7 -7 15 -10 18 -7 3 3 -2 9 -12 12 -14 6 -15 5 -6 -5z"/>
<path d="M1416 993 c-6 -14 -5 -15 5 -6 7 7 10 15 7 18 -3 3 -9 -2 -12 -12z"/>
<path d="M980 499 c0 -5 -4 -7 -10 -4 -6 4 -7 -1 -3 -11 4 -12 3 -15 -5 -10
-8 5 -10 2 -5 -10 5 -14 7 -14 18 5 6 12 14 18 19 14 4 -4 4 0 0 10 -7 19 -14
22 -14 6z"/>
</g>
</svg>
